<svg width="16" height="16" viewBox="0 0 16 16" fill="none" xmlns="http://www.w3.org/2000/svg">
<path d="M4.26665 6.13331H4.39998C4.91331 6.13331 5.33331 6.55331 5.33331 7.06665V11.7333C5.33331 12.2466 4.91331 12.6666 4.39998 12.6666H4.26665C3.75331 12.6666 3.33331 12.2466 3.33331 11.7333V7.06665C3.33331 6.55331 3.75331 6.13331 4.26665 6.13331ZM7.99998 3.33331C8.51331 3.33331 8.93331 3.75331 8.93331 4.26665V11.7333C8.93331 12.2466 8.51331 12.6666 7.99998 12.6666C7.48665 12.6666 7.06665 12.2466 7.06665 11.7333V4.26665C7.06665 3.75331 7.48665 3.33331 7.99998 3.33331ZM11.7333 8.66665C12.2466 8.66665 12.6666 9.08665 12.6666 9.59998V11.7333C12.6666 12.2466 12.2466 12.6666 11.7333 12.6666C11.22 12.6666 10.8 12.2466 10.8 11.7333V9.59998C10.8 9.08665 11.22 8.66665 11.7333 8.66665Z" fill="black" fill-opacity="0.54"/>
</svg>
