<svg width="16" height="16" viewBox="0 0 16 16" fill="none" xmlns="http://www.w3.org/2000/svg">
<path d="M9.76667 3.32065L6.43333 2.15398C6.15333 2.05398 5.84667 2.05398 5.56667 2.14731L2.90667 3.04065C2.36667 3.22731 2 3.73398 2 4.30731V12.2073C2 13.1473 2.94 13.7873 3.81333 13.4473L5.76667 12.6873C5.91333 12.6273 6.08 12.6273 6.22667 12.6806L9.56 13.8473C9.84 13.9473 10.1467 13.9473 10.4267 13.854L13.0867 12.9606C13.6267 12.7806 13.9933 12.2673 13.9933 11.694V3.79398C13.9933 2.85398 13.0533 2.21398 12.18 2.55398L10.2267 3.31398C10.08 3.36731 9.92 3.37398 9.76667 3.32065ZM10 12.594L6 11.1873V3.40731L10 4.81398V12.594Z" fill="#202020"/>
</svg>
