<svg width="16" height="16" viewBox="0 0 16 16" fill="none" xmlns="http://www.w3.org/2000/svg">
<rect width="16" height="16" fill="white" fill-opacity="0.01"/>
<path fill-rule="evenodd" clip-rule="evenodd" d="M2.1333 2.6667C2.1333 2.37215 2.37208 2.13336 2.66663 2.13336H5.86663C6.16118 2.13336 6.39997 2.37215 6.39997 2.6667C6.39997 2.96124 6.16118 3.20003 5.86663 3.20003H3.19997V5.8667C3.19997 6.16124 2.96118 6.40003 2.66663 6.40003C2.37208 6.40003 2.1333 6.16124 2.1333 5.8667V2.6667ZM9.59997 2.6667C9.59997 2.37215 9.83875 2.13336 10.1333 2.13336H13.3333C13.6278 2.13336 13.8666 2.37215 13.8666 2.6667V5.8667C13.8666 6.16124 13.6278 6.40003 13.3333 6.40003C13.0388 6.40003 12.8 6.16124 12.8 5.8667V3.20003H10.1333C9.83875 3.20003 9.59997 2.96124 9.59997 2.6667ZM2.66663 9.60003C2.96118 9.60003 3.19997 9.83881 3.19997 10.1334V12.8H5.86663C6.16118 12.8 6.39997 13.0389 6.39997 13.3334C6.39997 13.6279 6.16118 13.8667 5.86663 13.8667H2.66663C2.37208 13.8667 2.1333 13.6279 2.1333 13.3334V10.1334C2.1333 9.83881 2.37208 9.60003 2.66663 9.60003ZM13.3333 9.60003C13.6278 9.60003 13.8666 9.83881 13.8666 10.1334V13.3334C13.8666 13.6279 13.6278 13.8667 13.3333 13.8667H10.1333C9.83875 13.8667 9.59997 13.6279 9.59997 13.3334C9.59997 13.0389 9.83875 12.8 10.1333 12.8H12.8V10.1334C12.8 9.83881 13.0388 9.60003 13.3333 9.60003Z" fill="#646464"/>
</svg>
