<svg width="16" height="16" viewBox="0 0 16 16" fill="none" xmlns="http://www.w3.org/2000/svg">
<rect width="16" height="16" fill="white" fill-opacity="0.01"/>
<path fill-rule="evenodd" clip-rule="evenodd" d="M8.00008 1.12C8.26518 1.12 8.48008 1.3349 8.48008 1.6V8.9745L10.8607 6.59391C11.0481 6.40646 11.352 6.40646 11.5394 6.59391C11.727 6.78137 11.727 7.08529 11.5394 7.27274L8.3395 10.4727C8.15204 10.6602 7.84812 10.6602 7.66067 10.4727L4.46067 7.27274C4.27321 7.08529 4.27321 6.78137 4.46067 6.59391C4.64812 6.40646 4.95204 6.40646 5.1395 6.59391L7.52008 8.9745V1.6C7.52008 1.3349 7.73498 1.12 8.00008 1.12ZM2.6667 10.6667C2.96124 10.6667 3.20003 10.9055 3.20003 11.2V12.8C3.20003 13.3908 3.67539 13.8667 4.2628 13.8667H11.7346C12.3231 13.8667 12.8 13.3897 12.8 12.8V11.2C12.8 10.9055 13.0389 10.6667 13.3334 10.6667C13.6279 10.6667 13.8667 10.9055 13.8667 11.2V12.8C13.8667 13.9777 12.9133 14.9333 11.7346 14.9333H4.2628C3.0829 14.9333 2.13336 13.9765 2.13336 12.8V11.2C2.13336 10.9055 2.37215 10.6667 2.6667 10.6667Z" fill="#646464"/>
</svg>
