<svg width="16" height="16" viewBox="0 0 16 16" fill="none" xmlns="http://www.w3.org/2000/svg">
<path d="M3.99998 10.6666H5.33331V11.9999C5.33331 12.3666 5.63331 12.6666 5.99998 12.6666C6.36665 12.6666 6.66665 12.3666 6.66665 11.9999V9.99992C6.66665 9.63325 6.36665 9.33325 5.99998 9.33325H3.99998C3.63331 9.33325 3.33331 9.63325 3.33331 9.99992C3.33331 10.3666 3.63331 10.6666 3.99998 10.6666ZM5.33331 5.33325H3.99998C3.63331 5.33325 3.33331 5.63325 3.33331 5.99992C3.33331 6.36659 3.63331 6.66659 3.99998 6.66659H5.99998C6.36665 6.66659 6.66665 6.36659 6.66665 5.99992V3.99992C6.66665 3.63325 6.36665 3.33325 5.99998 3.33325C5.63331 3.33325 5.33331 3.63325 5.33331 3.99992V5.33325ZM9.99998 12.6666C10.3666 12.6666 10.6666 12.3666 10.6666 11.9999V10.6666H12C12.3666 10.6666 12.6666 10.3666 12.6666 9.99992C12.6666 9.63325 12.3666 9.33325 12 9.33325H9.99998C9.63331 9.33325 9.33331 9.63325 9.33331 9.99992V11.9999C9.33331 12.3666 9.63331 12.6666 9.99998 12.6666ZM10.6666 5.33325V3.99992C10.6666 3.63325 10.3666 3.33325 9.99998 3.33325C9.63331 3.33325 9.33331 3.63325 9.33331 3.99992V5.99992C9.33331 6.36659 9.63331 6.66659 9.99998 6.66659H12C12.3666 6.66659 12.6666 6.36659 12.6666 5.99992C12.6666 5.63325 12.3666 5.33325 12 5.33325H10.6666Z" fill="#202020"/>
</svg>
