<svg width="16" height="16" viewBox="0 0 16 16" fill="none" xmlns="http://www.w3.org/2000/svg">
<path d="M3.99992 9.33331C3.63325 9.33331 3.33325 9.63331 3.33325 9.99998V12C3.33325 12.3666 3.63325 12.6666 3.99992 12.6666H5.99992C6.36659 12.6666 6.66659 12.3666 6.66659 12C6.66659 11.6333 6.36659 11.3333 5.99992 11.3333H4.66659V9.99998C4.66659 9.63331 4.36659 9.33331 3.99992 9.33331ZM3.99992 6.66665C4.36659 6.66665 4.66659 6.36665 4.66659 5.99998V4.66665H5.99992C6.36659 4.66665 6.66659 4.36665 6.66659 3.99998C6.66659 3.63331 6.36659 3.33331 5.99992 3.33331H3.99992C3.63325 3.33331 3.33325 3.63331 3.33325 3.99998V5.99998C3.33325 6.36665 3.63325 6.66665 3.99992 6.66665ZM11.3333 11.3333H9.99992C9.63325 11.3333 9.33325 11.6333 9.33325 12C9.33325 12.3666 9.63325 12.6666 9.99992 12.6666H11.9999C12.3666 12.6666 12.6666 12.3666 12.6666 12V9.99998C12.6666 9.63331 12.3666 9.33331 11.9999 9.33331C11.6333 9.33331 11.3333 9.63331 11.3333 9.99998V11.3333ZM9.33325 3.99998C9.33325 4.36665 9.63325 4.66665 9.99992 4.66665H11.3333V5.99998C11.3333 6.36665 11.6333 6.66665 11.9999 6.66665C12.3666 6.66665 12.6666 6.36665 12.6666 5.99998V3.99998C12.6666 3.63331 12.3666 3.33331 11.9999 3.33331H9.99992C9.63325 3.33331 9.33325 3.63331 9.33325 3.99998Z" fill="#202020"/>
</svg>
