<svg width="16" height="16" viewBox="0 0 16 16" fill="none" xmlns="http://www.w3.org/2000/svg">
<path d="M15.3333 5.33333C15.3333 6.06667 14.7333 6.66667 14 6.66667C13.88 6.66667 13.7666 6.65333 13.66 6.62L11.2866 8.98667C11.32 9.09333 11.3333 9.21333 11.3333 9.33333C11.3333 10.0667 10.7333 10.6667 9.99996 10.6667C9.26663 10.6667 8.66663 10.0667 8.66663 9.33333C8.66663 9.21333 8.67996 9.09333 8.71329 8.98667L7.01329 7.28667C6.90663 7.32 6.78663 7.33333 6.66663 7.33333C6.54663 7.33333 6.42663 7.32 6.31996 7.28667L3.28663 10.3267C3.31996 10.4333 3.33329 10.5467 3.33329 10.6667C3.33329 11.4 2.73329 12 1.99996 12C1.26663 12 0.666626 11.4 0.666626 10.6667C0.666626 9.93333 1.26663 9.33333 1.99996 9.33333C2.11996 9.33333 2.23329 9.34667 2.33996 9.38L5.37996 6.34667C5.34663 6.24 5.33329 6.12 5.33329 6C5.33329 5.26667 5.93329 4.66667 6.66663 4.66667C7.39996 4.66667 7.99996 5.26667 7.99996 6C7.99996 6.12 7.98663 6.24 7.95329 6.34667L9.65329 8.04667C9.75996 8.01333 9.87996 8 9.99996 8C10.12 8 10.24 8.01333 10.3466 8.04667L12.7133 5.67333C12.68 5.56667 12.6666 5.45333 12.6666 5.33333C12.6666 4.6 13.2666 4 14 4C14.7333 4 15.3333 4.6 15.3333 5.33333ZM15.3333 5.33333C15.3333 6.06667 14.7333 6.66667 14 6.66667C13.88 6.66667 13.7666 6.65333 13.66 6.62L11.2866 8.98667C11.32 9.09333 11.3333 9.21333 11.3333 9.33333C11.3333 10.0667 10.7333 10.6667 9.99996 10.6667C9.26663 10.6667 8.66663 10.0667 8.66663 9.33333C8.66663 9.21333 8.67996 9.09333 8.71329 8.98667L7.01329 7.28667C6.90663 7.32 6.78663 7.33333 6.66663 7.33333C6.54663 7.33333 6.42663 7.32 6.31996 7.28667L3.28663 10.3267C3.31996 10.4333 3.33329 10.5467 3.33329 10.6667C3.33329 11.4 2.73329 12 1.99996 12C1.26663 12 0.666626 11.4 0.666626 10.6667C0.666626 9.93333 1.26663 9.33333 1.99996 9.33333C2.11996 9.33333 2.23329 9.34667 2.33996 9.38L5.37996 6.34667C5.34663 6.24 5.33329 6.12 5.33329 6C5.33329 5.26667 5.93329 4.66667 6.66663 4.66667C7.39996 4.66667 7.99996 5.26667 7.99996 6C7.99996 6.12 7.98663 6.24 7.95329 6.34667L9.65329 8.04667C9.75996 8.01333 9.87996 8 9.99996 8C10.12 8 10.24 8.01333 10.3466 8.04667L12.7133 5.67333C12.68 5.56667 12.6666 5.45333 12.6666 5.33333C12.6666 4.6 13.2666 4 14 4C14.7333 4 15.3333 4.6 15.3333 5.33333Z" fill="#646464"/>
</svg>
